<svg xmlns="http://www.w3.org/2000/svg" viewBox="0 0 334.18008 258.76804">
  <g transform="translate(-33.322704,-80.77996)">
    <path
      d="m 163.989,108.416 c -19.047,15.225 -34.832,28.229 -35.078,28.899 -0.246,0.669 7.185,6.422 16.514,12.783 9.328,6.361 25.414,17.377 35.745,24.48 l 18.786,12.914 27.086,-18.814 c 14.898,-10.348 31.022,-21.651 35.832,-25.118 l 8.747,-6.303 -35.352,-28.216 c -19.443,-15.519 -35.868,-28.236 -36.5,-28.261 -0.632,-0.026 -16.733,12.411 -35.78,27.636 m -86.99,66.089 c -22.671,17.15 -42.291,32.242 -43.601,33.538 -2.83,2.8 75.029,66.383 79.287,64.749 3.384,-1.299 72.636,-61.642 72.636,-63.292 0,-1.333 -58.938,-60.075 -64.286,-64.072 -2.314,-1.729 -10.182,3.466 -44.036,29.077 m 169.41,2.101 -33.37,33.486 36.75,31.192 c 20.212,17.156 37.489,31.462 38.393,31.791 1.197,0.435 65.089,-49.533 79.31,-62.026 1.116,-0.981 -84.767,-67.93 -87.142,-67.93 -0.314,0 -15.587,15.069 -33.941,33.487 M 209.633,150.74 c 10.412,12.305 -6.221,28.938 -18.526,18.526 -6.784,-5.741 -6.934,-12.437 -0.422,-18.948 6.511,-6.512 13.207,-6.362 18.948,0.422 m -49.668,104.117 c -21.515,12.718 -39.212,23.95 -39.327,24.96 -0.115,1.009 17.619,14.861 39.408,30.783 l 39.618,28.948 39.91,-29.005 c 21.95,-15.952 39.985,-29.697 40.076,-30.544 0.149,-1.377 -58.021,-36.648 -74.145,-44.957 l -6.422,-3.31 -39.118,23.125"
      fill="currentColor"
      fill-rule="evenodd"
      stroke="none"
    />
  </g>
</svg>
