<?xml version="1.0" encoding="UTF-8" standalone="no"?>
<!-- Created with Inkscape (http://www.inkscape.org/) -->

<svg
   width="500"
   height="500"
   viewBox="0 0 132.29166 132.29167"
   version="1.1"
   id="svg1"
   xml:space="preserve"
   xmlns="http://www.w3.org/2000/svg"
   xmlns:svg="http://www.w3.org/2000/svg"><defs
     id="defs1" /><g
     id="layer1"><path
       style="fill:#000000;stroke-width:1.92595"
       d="M 25.867972,91.282782 C 19.007776,89.890032 14.969219,87.289568 12.662892,82.779909 11.442149,80.392941 11.116867,79.020506 10.930556,75.4708 10.355746,64.519249 14.511803,58.480938 24.195811,56.197786 c 3.404506,-0.802666 22.587891,-1.126702 22.942986,-0.387542 0.100978,0.2102 0.09358,2.714675 -0.01637,5.565499 l -0.200034,5.183318 -9.253241,0.182138 c -10.080843,0.198423 -11.577053,0.550863 -12.858482,3.028874 -0.836392,1.617402 -0.954663,5.373604 -0.229273,7.281531 0.273281,0.718785 1.247844,1.764751 2.165694,2.324356 1.506034,0.918237 2.572779,1.017674 10.935783,1.019388 l 9.266962,0.0019 0.160182,5.395115 c 0.08809,2.967309 0.06463,5.489719 -0.05214,5.605329 -0.270508,0.26781 -19.827044,0.16178 -21.189835,-0.11498 z M 50.582368,73.51798 V 55.428063 h 5.621694 c 3.67039,0 6.190856,0.245659 7.261446,0.707746 1.995719,0.861386 5.116929,4.091971 12.362769,12.795996 3.03308,3.643461 5.70212,6.70091 5.93122,6.794338 0.22909,0.09341 0.41653,-4.43543 0.41653,-10.064112 V 55.428063 h 5.86012 5.86011 v 6.114903 6.1149 h 7.898413 7.89841 v -6.1149 -6.114903 h 5.86012 5.86011 v 18.106615 18.106604 l -5.73272,-0.14406 -5.73272,-0.14407 -0.14308,-6.2423 -0.14308,-6.242284 h -7.88273 -7.882723 v 6.369686 6.369688 h -5.25049 c -7.7282,0 -8.54755,-0.50635 -17.931071,-11.081321 -4.166502,-4.695532 -7.763703,-8.61376 -7.993779,-8.707182 -0.230077,-0.09343 -0.418321,4.320765 -0.418321,9.809328 v 9.979175 H 56.442483 50.582368 Z M 110.20266,46.25571 v -5.605328 h 5.60532 5.60533 v 5.605328 5.605326 h -5.60533 -5.60532 z"
       id="path1" /></g></svg>
