<svg xmlns="http://www.w3.org/2000/svg" viewBox="0 0 132.29166 132.29167" fill="currentColor">
  <path d="M25.868 91.283c-6.86-1.393-10.899-3.993-13.205-8.503-1.221-2.387-1.546-3.759-1.732-7.309-.575-10.952 3.581-16.99 13.265-19.274 3.405-.803 22.588-1.127 22.943-.388.101.21.094 2.715-.016 5.566l-.2 5.183-9.253.182c-10.08.198-11.577.551-12.859 3.029-.836 1.617-.954 5.374-.229 7.282.273.719 1.248 1.765 2.166 2.324 1.506.918 2.572 1.018 10.935 1.02l9.267.002.16 5.395c.088 2.967.065 5.49-.052 5.605-.27.268-19.827.162-21.19-.115zm24.714-17.765V55.428h5.622c3.67 0 6.19.246 7.26.708 1.996.861 5.117 4.092 12.363 12.796 3.033 3.643 5.702 6.7 5.931 6.794.229.093.417-4.435.417-10.064V55.428h5.86 5.86v6.115 6.115h7.899 7.899v-6.115-6.115h5.86 5.86v18.107 18.106l-5.733-.144-5.733-.144-.143-6.242-.143-6.242h-7.883-7.883v6.37 6.37h-5.251c-7.728 0-8.548-.507-17.931-11.081-4.166-4.696-7.764-8.614-7.994-8.707-.23-.094-.418 4.32-.418 9.809v9.979h-5.86-5.86zm59.62-27.262v-5.605h5.605 5.605v5.605 5.605h-5.605-5.605z"/>
</svg>
