<?xml version="1.0" encoding="UTF-8" standalone="no"?>
<!-- Created with Inkscape (http://www.inkscape.org/) -->

<svg
   width="500"
   height="500"
   viewBox="0 0 132.29166 132.29167"
   version="1.1"
   id="svg1"
   xml:space="preserve"
   xmlns="http://www.w3.org/2000/svg"
   xmlns:svg="http://www.w3.org/2000/svg"><defs
     id="defs1" /><g
     id="layer1"><path
       style="fill:#000000;stroke-width:1.99353"
       d="m 87.677126,116.38054 c -7.160648,-1.20682 -10.379695,-6.25841 -8.101942,-12.71424 1.797069,-5.09342 6.670326,-7.85376 13.843055,-7.84106 6.033621,0.0103 6.605501,0.24808 6.194671,2.5715 -0.5912,3.34317 -0.82617,3.75078 -2.16222,3.75078 -0.88393,0 -1.28309,-0.29536 -1.28309,-0.94943 0,-1.45587 -1.077127,-2.21551 -3.138356,-2.21334 -3.923416,0.005 -6.883294,3.4057 -6.883294,7.91047 0,1.83105 0.322258,2.53698 1.860283,4.075 l 1.860307,1.8603 4.20544,-0.24345 c 2.313,-0.1339 4.20544,-0.0608 4.20544,0.16245 0,1.78188 -1.15741,3.07887 -3.009027,3.37193 -3.910774,0.61899 -5.195619,0.66285 -7.591267,0.2591 z m -55.06842,-0.52001 c -0.179578,-0.29056 0.381466,-1.18064 1.246762,-1.97796 1.368307,-1.26082 1.752181,-2.30116 2.946674,-7.98584 1.245047,-5.92526 1.296967,-6.62064 0.555486,-7.43996 -0.449859,-0.49709 -0.668133,-1.29416 -0.485051,-1.77126 0.276208,-0.71979 1.176312,-0.86747 5.287274,-0.86747 5.282063,0 5.812905,0.31391 3.956432,2.33956 -0.827109,0.90248 -2.390208,6.05212 -1.965847,6.47647 0.06954,0.0695 1.698891,-1.17878 3.620787,-2.77403 2.869507,-2.38181 3.476888,-3.15776 3.396649,-4.33936 l -0.0977,-1.4389 4.615235,-0.15241 c 4.260862,-0.14071 4.615235,-0.0742 4.615235,0.86586 0,0.62896 -0.473949,1.13723 -1.239642,1.32939 -1.238401,0.31082 -8.356082,5.82523 -8.700226,6.74049 -0.290271,0.77198 5.738388,8.46248 6.864709,8.75702 0.679897,0.1778 0.96742,0.6402 0.861148,1.38493 -0.137913,0.96642 -0.564945,1.13929 -3.14942,1.27492 -4.504697,0.2364 -6.362497,-0.77376 -8.983221,-4.88451 -1.212694,-1.90217 -2.372726,-3.27811 -2.577853,-3.05764 -0.700509,0.75295 -1.106285,4.76185 -0.518742,5.12497 0.310569,0.19194 0.564671,0.92836 0.564671,1.6365 0,1.27869 -0.03589,1.2875 -5.243425,1.2875 -2.932159,0 -5.387345,-0.23286 -5.569924,-0.52828 z m 27.156834,-0.13104 c -0.0041,-0.36262 0.749978,-4.15441 1.675952,-8.42621 1.528791,-7.05275 1.608565,-7.85297 0.867645,-8.70302 -1.744667,-2.00165 -0.780978,-2.25476 8.58456,-2.25476 9.959965,0 9.489318,-0.21509 8.367593,3.82405 -0.661611,2.38237 -2.347199,2.73664 -3.136994,0.65932 -0.44956,-1.18242 -0.796324,-1.31865 -3.356709,-1.31865 h -2.855361 l -0.353349,1.88356 c -0.194349,1.03595 -0.483508,2.22273 -0.642589,2.63729 -0.232725,0.60646 0.391645,0.75372 3.195654,0.75372 3.264721,0 3.484389,0.0749 3.476817,1.18678 -0.01377,2.02525 -0.687022,2.44311 -4.203581,2.60904 l -3.393123,0.1601 -0.425811,2.05883 c -0.324151,1.56731 -0.231853,2.27316 0.386643,2.95659 0.446852,0.49376 0.662666,1.28811 0.479584,1.76522 -0.269989,0.7036 -1.119316,0.86746 -4.496079,0.86746 -2.974865,0 -4.165396,-0.18818 -4.170852,-0.65931 z m 6.86455,-28.589164 c 0,-4.335747 -0.552252,-5.528305 -1.257964,-2.716506 -0.175958,0.701077 -0.780778,2.349803 -1.344033,3.663823 -1.012357,2.361734 -1.042765,2.38211 -2.650044,1.775431 -0.894266,-0.337551 -1.517276,-0.85659 -1.384471,-1.153436 2.591333,-5.791926 4.526696,-10.423758 4.526696,-10.833574 0,-0.287088 -1.531848,-0.518964 -3.428459,-0.518964 h -3.428462 v -2.37355 -2.373549 h 1.922378 1.922377 l -3.493223,-3.200902 c -3.219633,-2.950209 -3.597399,-3.530687 -4.823381,-7.411606 -0.731589,-2.315884 -1.330159,-4.673156 -1.330159,-5.238383 0,-0.565224 -0.191998,-1.027682 -0.426644,-1.027682 -1.319603,0 -2.356433,-1.82951 -3.533911,-6.235663 -1.414611,-5.293511 -1.643525,-7.992584 -0.753367,-8.882742 0.395876,-0.395875 0.318372,-1.495558 -0.263728,-3.74195 -1.072489,-4.13887 -1.041955,-4.83926 0.271928,-6.237825 1.017921,-1.083529 1.039528,-1.276711 0.302243,-2.702462 -0.971076,-1.877854 -0.604011,-2.545509 1.670891,-3.039174 1.621761,-0.351933 1.689786,-0.447338 0.923048,-1.294573 -1.150905,-1.271736 -1.03953,-1.622761 0.514876,-1.622761 1.209037,0 2.313992,-0.857582 4.336765,-3.365866 0.367705,-0.455964 2.344539,-1.338087 4.392967,-1.960279 5.175687,-1.572066 11.238256,-1.269928 15.402876,0.767628 5.173671,2.531243 10.391753,9.671057 10.391753,14.218868 0,0.64982 0.351055,1.682691 0.780124,2.295272 0.690143,0.985325 0.685233,1.433278 -0.04256,3.883994 -0.641384,2.159813 -0.679875,2.858459 -0.17465,3.170708 1.728875,1.068506 -1.357605,13.494357 -3.5958,14.476309 -0.703142,0.308483 -1.186776,0.984427 -1.186776,1.658669 0,0.625903 -0.488877,2.720815 -1.086401,4.655361 -1.146793,3.712874 -3.257033,6.541031 -6.557973,8.789025 -2.257596,1.537465 -2.326582,2.046035 -0.277503,2.046035 1.223546,0 1.643403,0.283245 1.892797,1.276919 0.671948,2.67726 0.191263,3.194106 -3.130787,3.366314 -3.052279,0.158227 -3.080514,0.174434 -2.755284,1.582367 0.18073,0.782375 0.477438,3.855397 0.659339,6.828927 0.286945,4.690359 0.221642,5.406419 -0.493042,5.406419 -0.453093,0 -1.199246,0.144063 -1.658122,0.320159 -0.721234,0.276757 -0.834321,-0.299382 -0.834321,-4.250781 z m 1.714236,-15.356165 c 0.50768,-1.020138 0.923051,-2.171402 0.923051,-2.558368 0,-0.398218 0.570402,-0.703573 1.314273,-0.703573 0.722852,0 2.156314,-0.64226 3.185489,-1.427246 2.965327,-2.261768 4.503605,-5.032283 4.99527,-8.996727 0.472987,-3.81393 0.480846,-3.830477 2.231507,-4.701305 0.920264,-0.457765 1.469086,-1.625677 2.379747,-5.064123 0.650998,-2.458028 1.073815,-4.765834 0.939595,-5.12846 -0.441035,-1.191611 -1.352408,-0.689342 -1.674884,0.923048 -0.433497,2.167486 -1.239527,1.995992 -1.239527,-0.263729 0,-1.216406 -0.247834,-1.846093 -0.726592,-1.846093 -0.992588,0 -1.613585,0.925014 -2.34822,3.497753 -0.739086,2.588364 -1.703198,3.515901 -3.357477,3.230093 -1.189988,-0.205593 -1.184998,-0.222983 0.234686,-0.818619 3.024619,-1.268989 1.119569,-3.034476 -3.692183,-3.421705 -2.086102,-0.167875 -2.769144,-0.04679 -2.769144,0.49091 0,1.257542 -1.550083,0.762293 -1.893221,-0.604884 -0.344275,-1.37167 -1.685852,-1.807558 -2.029266,-0.659319 -0.108417,0.362626 -0.581875,1.909527 -1.05204,3.437558 -0.988803,3.213544 -0.544418,4.656046 1.600185,5.194308 1.706836,0.428386 3.926044,-0.566954 4.279749,-1.919512 0.402636,-1.539672 0.903433,-1.319645 3.826323,1.681096 2.932377,3.010477 3.159848,3.994091 1.597741,6.908659 -0.5802,1.082529 -1.054919,2.325126 -1.054919,2.761329 0,1.402779 -0.978982,0.843978 -1.151738,-0.657407 l -0.166894,-1.450502 -4.219644,0.19108 c -4.610508,0.208778 -5.600326,0.491997 -4.287378,1.226758 0.472402,0.26437 0.840173,1.002928 0.817273,1.641239 -0.02295,0.638311 -0.161353,0.863871 -0.307676,0.501246 -0.146335,-0.362626 -0.497631,-0.659319 -0.780675,-0.659319 -0.283044,0 -0.375457,0.225179 -0.205362,0.500399 0.170083,0.275221 0.04451,1.551952 -0.279155,2.837187 -0.638492,2.535693 0.01491,4.557139 2.170013,6.712119 1.387652,1.387647 1.669239,1.29993 2.741093,-0.853891 z m -7.51624,-5.838021 c 0,-1.002227 -1.2875,-4.412704 -1.665856,-4.412704 -0.244181,0 -0.443965,0.237355 -0.443965,0.527456 0,0.290101 -0.218947,0.527455 -0.486552,0.527455 -0.538744,0 -1.356564,-2.368881 -1.866482,-5.406419 -0.387515,-2.308391 -1.589787,-2.635156 -2.482963,-0.674848 -0.805645,1.7682 0.5672,5.325728 3.036264,7.868042 1.602934,1.650487 3.909554,2.577382 3.909554,1.571018 z m 7.261958,-7.954317 c -0.792584,-0.120349 -2.216708,-0.122782 -3.164736,-0.0054 -0.948016,0.117398 -0.299542,0.215859 1.441058,0.218819 1.740611,0.003 2.516261,-0.09308 1.723678,-0.213438 z m -3.973542,-1.758417 c 1.380172,-0.3833 2.606093,-0.375705 4.095589,0.02538 1.169199,0.314832 2.960772,0.415785 3.981262,0.22434 l 1.855431,-0.348081 -1.938402,-1.882549 c -1.926527,-1.871026 -1.947878,-1.877105 -3.488358,-0.99299 -1.761469,1.010946 -3.70127,1.141003 -5.183837,0.347554 -0.769689,-0.411923 -1.535939,-0.275083 -3.192814,0.570192 -2.166791,1.105415 -2.226738,1.747519 -0.208469,2.232976 1.706732,0.410524 2.012435,0.397273 4.079598,-0.176826 z m -6.17215,-4.732297 c 1.920226,-1.186765 2.769099,-2.626603 1.548542,-2.626603 -0.426046,0 -0.774629,-0.237356 -0.774629,-0.527457 0,-0.290099 0.427238,-0.527455 0.94942,-0.527455 1.260586,0 2.215921,-1.013391 2.212707,-2.347177 -0.0022,-0.913163 -0.381508,-1.103307 -2.439573,-1.222937 -1.340332,-0.07791 -2.760267,0.12667 -3.155411,0.454601 -0.395142,0.327941 -1.069896,0.461389 -1.499449,0.296555 -1.242471,-0.476782 -1.416234,0.478683 -0.274901,1.511576 1.440419,1.30356 1.303691,1.920497 -0.334504,1.509336 -1.258059,-0.315753 -1.344421,-0.236905 -0.99999,0.912998 0.540963,1.806034 1.777126,3.632147 2.458733,3.632147 0.321696,0 1.360771,-0.479512 2.309055,-1.065584 z m 4.466101,-1.307965 c 0,-0.725251 -0.237357,-1.318638 -0.527455,-1.318638 -0.290101,0 -0.527457,0.593387 -0.527457,1.318638 0,0.725251 0.237356,1.318638 0.527457,1.318638 0.290098,0 0.527455,-0.593387 0.527455,-1.318638 z m -12.23783,-2.431095 c -0.26939,-1.482152 -0.377625,-2.987146 -0.240523,-3.344429 0.368492,-0.960272 -0.487723,-2.070999 -1.23868,-1.60688 -0.708703,0.438001 -0.445048,3.761222 0.494454,6.232297 0.907599,2.387171 1.509215,1.604575 0.984749,-1.280988 z m 25.424213,-4.689555 c -1.421932,-1.112257 -3.42909,-1.379877 -3.955907,-0.527454 -0.187419,0.303253 0.303798,0.530888 1.155638,0.535532 0.814898,0.0044 1.83766,0.238162 2.272821,0.51938 1.449157,0.936524 1.866066,0.519622 0.527448,-0.527458 z M 58.712143,42.876211 c 2.081212,-0.622161 2.222623,-0.753682 1.169675,-1.087874 -0.817924,-0.2596 -1.735938,-0.03545 -2.894882,0.706845 -1.978462,1.267182 -1.553247,1.361096 1.725207,0.381029 z m -3.391288,-0.610407 c 0.991502,-0.781196 0.983491,-0.802033 -0.253464,-0.65932 -0.702529,0.08105 -1.375035,0.444065 -1.494458,0.80669 -0.295473,0.897201 0.508134,0.829446 1.747922,-0.147362 z m 22.784039,0.147362 c -0.26073,-0.791699 -2.508058,-1.218424 -2.508058,-0.476231 0,0.554859 0.870323,1.025723 2.021912,1.093909 0.386804,0.02291 0.605566,-0.255052 0.486146,-0.617678 z m -9.245855,-1.448532 c 1.429161,-0.871362 2.661024,-1.053278 7.143439,-1.054911 l 5.416469,-0.002 -0.335027,-1.450502 c -0.184264,-0.797776 -0.663492,-2.139695 -1.064958,-2.982042 -0.401466,-0.842348 -0.729931,-2.37863 -0.729931,-3.413959 0,-1.744361 0.05243,-1.806114 0.715349,-0.84201 0.393447,0.572226 1.201369,2.345861 1.795394,3.941413 1.04246,2.800056 1.093422,2.848774 1.464336,1.399987 0.500453,-1.954785 -0.06264,-7.236242 -1.014398,-9.514077 -1.105319,-2.645401 -4.393409,-6.033608 -7.269857,-7.491215 -5.429525,-2.751345 -9.459031,-3.20651 -14.811088,-1.67302 -2.050619,0.58755 -2.667542,1.445458 -1.054912,1.466982 0.507678,0.0068 -0.247567,0.659503 -1.678316,1.450502 -3.158571,1.746239 -3.975111,3.136777 -1.148409,1.955706 3.285902,-1.372936 6.82634,-0.723008 9.824484,1.803507 1.412192,1.190041 1.69449,1.694694 1.220448,2.181802 -0.480009,0.493248 -1.207737,0.491882 -3.283811,-0.0062 -2.346268,-0.56286 -2.906107,-0.522826 -4.653245,0.332751 -2.294648,1.123691 -4.171389,4.097144 -4.671924,7.402045 -0.184082,1.215396 -0.78459,2.616972 -1.33448,3.114618 -2.041336,1.847381 -1.301724,2.323449 3.615432,2.327152 3.718505,0.0028 4.922686,0.207092 6.197603,1.051435 2.005649,1.328286 3.481193,1.328802 5.657402,0.002 z m 11.748624,-0.002 c 0.179296,-0.290101 -0.05805,-0.527455 -0.527448,-0.527455 -0.469396,0 -0.706756,0.237354 -0.52746,0.527455 0.179296,0.290101 0.416645,0.527455 0.52746,0.527455 0.110827,0 0.348163,-0.237354 0.527448,-0.527455 z M 50.963461,36.428872 c 0.167118,-1.619265 0.677401,-3.45712 1.133949,-4.084126 0.456552,-0.627004 1.429355,-2.038692 2.161789,-3.137081 0.732434,-1.098391 2.094695,-2.462293 3.027247,-3.030896 2.379059,-1.450585 0.649004,-1.392926 -4.192529,0.139726 -3.630946,1.149423 -3.767233,1.252369 -3.495625,2.640398 0.171066,0.874239 -0.05521,1.959933 -0.573254,2.750582 -1.018553,1.554509 -1.056277,2.504543 -0.239892,6.041323 0.785382,3.402453 1.751333,2.817147 2.178315,-1.319923 z"
       id="path1" /></g></svg>
