<svg fill="currentColor" viewBox="0 0 132.29166 132.29167" xmlns="http://www.w3.org/2000/svg">
  <path d="M 39.818312,76.533443 C 37.73078,76.386846 37.610157,76.290113 35.98652,73.460335 32.172764,66.81348 31.196778,66.591995 31.196778,72.373371 V 76.44465 H 29.041396 26.886013 V 65.907219 55.369789 h 4.086662 c 2.473136,0 4.738344,0.272287 5.737202,0.689637 1.928703,0.805864 3.583828,3.252435 3.583828,5.297538 0,1.638766 -1.435498,4.244363 -2.811918,5.103948 -0.911491,0.569238 -0.908028,0.610591 0.171672,2.049274 1.933236,2.576005 5.018513,7.89307 4.663168,8.036344 -0.188613,0.07605 -1.312854,0.07017 -2.498315,-0.01304 z m -4.78974,-12.542122 c 1.95981,-1.959808 0.642479,-4.78974 -2.229619,-4.78974 h -1.602175 v 2.873844 2.873845 H 32.6337 c 0.798292,0 1.862679,-0.425754 2.394872,-0.957949 z m 14.848199,12.168673 c -3.932455,-1.703339 -6.226664,-5.303127 -6.226664,-9.770105 0,-4.713061 1.964927,-8.108481 5.848351,-10.106019 2.272594,-1.168966 7.432258,-1.245109 9.62235,-0.142 5.816971,2.929901 7.801928,10.265333 4.307316,15.917734 -2.581535,4.175533 -8.937693,6.098789 -13.551353,4.10039 z m 7.800143,-3.62022 c 2.708853,-1.449736 3.718653,-7.651409 1.767062,-10.852402 -1.747291,-2.865898 -5.890765,-3.661428 -8.877504,-1.704442 -2.477529,1.623339 -3.30166,6.081167 -1.812365,9.803283 1.303977,3.258962 5.537385,4.565383 8.922807,2.753561 z m 15.817785,3.170556 c -7.201293,-3.588556 -7.504621,-14.169632 -0.538361,-18.779787 1.649653,-1.091713 2.626738,-1.348997 5.623858,-1.480873 1.99503,-0.08778 4.22006,0.06853 4.944509,0.347376 1.142585,0.439781 1.317175,0.769292 1.317175,2.485976 0,1.701291 -0.11765,1.928956 -0.838204,1.622395 -5.000432,-2.127357 -9.318179,-0.963247 -10.9547,2.953507 -1.379826,3.302379 -0.24743,7.606056 2.43803,9.265761 1.777779,1.098728 4.865415,1.266968 7.273191,0.396304 1.806142,-0.653107 1.886587,-0.612759 2.334209,1.170695 0.301922,1.202994 0.150606,1.397923 -1.757225,2.263626 -3.014987,1.368087 -6.794244,1.27402 -9.842482,-0.24498 z M 9.2272674,66.18888 9.3409508,55.93311 10.749257,55.651448 c 4.940978,-0.988195 9.706934,0.426753 11.063003,3.28446 2.325452,4.900526 -1.109291,10.321133 -6.541366,10.323386 l -1.796151,7.44e-4 v 3.592306 3.592306 H 11.294169 9.1135962 Z m 8.0792606,-1.23961 c 2.2058,-2.205801 0.66434,-5.747689 -2.501445,-5.747689 -1.327782,0 -1.330347,0.0065 -1.330347,3.352817 v 3.352821 h 1.436923 c 0.798289,0 1.862676,-0.425755 2.394869,-0.957949 z m 70.415599,11.375636 c 0.0037,-0.06586 1.813021,-4.753818 4.021108,-10.417687 l 4.014717,-10.297945 1.606834,-0.134071 1.60684,-0.13407 3.556444,8.99509 c 1.95605,4.9473 3.8449,9.695588 4.19745,10.551756 l 0.64102,1.556666 h -5.995 -5.994978 l 0.632813,-1.556666 c 0.584687,-1.438273 0.819975,-1.567621 3.093619,-1.70071 l 2.460796,-0.144046 -0.50969,-1.292881 c -0.28033,-0.711082 -1.214129,-3.292518 -2.075105,-5.736521 l -1.565422,-4.443644 -2.770762,7.437232 -2.770761,7.437233 h -2.078158 c -1.142992,0 -2.075292,-0.05389 -2.071765,-0.119756 z m 24.421293,-8.50179 v -8.621535 h -2.87384 -2.87386 v -1.915897 -1.915895 h 8.39118 8.39117 l -0.31465,1.317177 c -0.51057,2.137252 -1.08586,2.514615 -3.83353,2.514615 h -2.57571 v 8.621535 8.621534 h -2.15538 -2.15538 z" />
</svg>
