<svg fill="currentColor" viewBox="0 0 132.29166 132.29167" xmlns="http://www.w3.org/2000/svg">
  <path d="m 78.750286,117.10013 c -2.273268,0 -4.133213,-0.72834 -4.133213,-1.61853 0,-0.8902 2.29157,-2.12185 5.092382,-2.73701 2.800819,-0.61516 6.267656,-2.45824 7.704089,-4.09573 1.43644,-1.63749 3.172723,-4.81579 3.858404,-7.06289 0.685688,-2.247101 0.311266,-6.344072 -0.83213,-9.104387 C 89.296462,89.721274 87.048817,86.856899 85.445055,86.116321 83.841293,85.375736 73.304966,84.329873 62.030998,83.792189 42.459211,82.858751 41.232762,82.571601 34.892134,77.438098 31.239727,74.481035 26.617792,69.873587 24.621167,67.199321 21.722962,63.317485 20.990929,59.729943 20.990929,49.408127 c 0,-10.321817 0.732033,-13.909366 3.630238,-17.791195 1.996625,-2.674266 6.452647,-7.146675 9.902273,-9.938682 3.758419,-3.041943 9.267627,-5.478181 13.746702,-6.078949 5.918585,-0.793847 7.305743,-0.49029 6.663236,1.458143 -0.446298,1.353388 -2.513908,2.711467 -4.594709,3.017954 -2.080801,0.306481 -5.381452,2.589007 -7.334777,5.07226 -1.953324,2.483254 -3.551504,6.81788 -3.551504,9.632514 0,3.089092 1.710591,6.8281 4.315666,9.433168 3.991703,3.991702 5.608529,4.316956 21.53837,4.332845 14.495474,0.01462 18.666472,0.68939 26.340252,4.262266 6.168183,2.87187 10.644754,6.552838 13.838664,11.379163 2.61995,3.959007 5.12067,10.678901 5.61887,15.098946 0.57847,5.131868 -0.13019,10.656567 -1.99234,15.532458 -1.58954,4.162174 -5.45172,9.980812 -8.58259,12.930322 -3.130889,2.94951 -8.382,6.26005 -11.669148,7.35677 -3.287148,1.09671 -7.836577,1.99402 -10.109846,1.99402 z" />
</svg>
