<svg version="1.1" xmlns="http://www.w3.org/2000/svg" viewBox="0 0 166 176" width="166" height="176" fill="currentColor" >
  <path d="M0 0 C0.66 0.66 1.32 1.32 2 2 C-1.07 3.98 -4.15 5.52 -7.5 6.94 C-14.09 9.87 -17.56 12.83 -20.27 19.57 C-21.93 25.08 -21.76 29.91 -19.44 35.19 C-15.88 41.45 -11.06 44.89 -4.35 47.35 C-0.14 48.51 4.05 48.4 8.39 48.37 C10.4 48.39 12.41 48.41 14.42 48.42 C17.55 48.43 20.68 48.44 23.81 48.44 C42.42 48.46 57.33 50.05 71.75 63.19 C81.82 74.04 85.68 87 85.28 101.55 C84.23 114.62 78.92 126.28 69.21 135.26 C59.71 142.74 47.21 147.96 35 147 C35 145.68 35 144.36 35 143 C35.81 142.7 36.62 142.39 37.45 142.08 C45.64 138.91 45.64 138.91 52 133 C52.56 132.36 53.11 131.72 53.69 131.06 C56.81 126.16 57.36 121.95 56.54 116.31 C55.35 111.24 53.31 107.31 49.62 103.62 C43.7 99.95 37.81 99.58 31.03 99.22 C30.07 99.16 29.11 99.1 28.12 99.04 C25.06 98.85 22 98.68 18.94 98.5 C-24.95 95.96 -24.95 95.96 -37.33 82.15 C-47.36 69.25 -50.73 55.1 -49 39 C-46.8 27.57 -40.22 16.22 -31 9 C-20.98 2.32 -12.2 -1.26 0 0 Z" transform="translate(66,16)"/>
</svg>
