<svg fill="currentColor" viewBox="0 0 132.29166 132.29167" xmlns="http://www.w3.org/2000/svg">
  <path d="m 28.051532,84.286974 c -2.827,-0.705013 -9.661406,-3.708952 -10.857881,-4.772385 -0.588774,-0.523303 -1.078868,-0.702345 -1.089099,-0.397868 -0.01014,0.304473 -0.299176,0.07188 -0.642107,-0.516906 -0.342928,-0.588773 -1.176613,-1.070494 -1.852633,-1.070494 -0.676021,0 -1.075576,-0.248457 -0.887899,-0.552125 0.187687,-0.303669 -0.432086,-0.821703 -1.377251,-1.15119 -1.8250391,-0.636212 -3.7854696,-2.301769 -3.7854696,-3.216083 0,-0.4947 2.4625306,-0.355007 6.7288266,0.381709 13.678065,2.361969 21.898883,-1.795643 29.512029,-14.925476 3.895554,-6.718375 9.728116,-10.70521 15.392678,-10.521631 4.631305,0.150095 5.181713,0.247381 4.809229,0.850077 -0.197513,0.31957 0.171735,0.438829 0.827613,0.26731 0.651317,-0.170323 1.486463,0.01387 1.855878,0.409341 0.998905,1.069333 15.643401,4.957047 21.651431,5.747866 8.597055,1.131605 19.736723,0.404008 25.048423,-1.63606 0.8411,-0.323043 1.66691,-0.600978 1.83514,-0.61763 0.81798,-0.08099 4.21439,-1.49079 6.20041,-2.573717 5.23539,-2.85472 4.13557,0.226714 -2.39584,6.712562 -8.29362,8.235775 -15.58774,10.705394 -25.52033,8.640587 -2.782269,-0.578383 -10.680107,-2.301395 -21.409908,-4.670833 -16.620245,-3.670212 -17.433934,-3.376816 -25.912763,9.343559 -4.966795,7.451438 -9.388874,12.366789 -12.411663,13.796159 -2.400071,1.134908 -2.899761,1.176258 -5.718814,0.473228 z" />
</svg>
