<svg xmlns="http://www.w3.org/2000/svg" viewBox="0 0 76 76" fill="currentColor">
  <path d="M21.8953 23.1174c1.9228-.3501 4.5884-.6119 8.2146-.6119 3.9329 0 6.8167.83 8.696 2.4029 1.7478 1.4423 2.8842 3.7579 2.8842 6.5108 0 2.7966-.8737 5.1126-2.5342 6.6859-2.1411 2.141-5.5058 3.1461-9.3074 3.1461-.0051 0-.0102 0-.0152 0-.998 0-1.9158-.0436-2.6152-.175v11.0993h-5.3309V23.1174zm5.3309 13.7208c.6558.175 1.5299.2182 2.6223.2182 4.0198 0 6.4667-1.966 6.4667-5.4185 0-3.277-2.2724-5.0253-5.9867-5.0253-1.4851 0-2.5338.1314-3.1023.2627v9.9629zm15.6413.2619c0-3.758 3.1029-6.6859 8.0409-6.6859 2.3592 0 4.4135.6119 5.6363 1.2674l-1.0483 3.8015c-.9178-.5246-2.6224-1.2232-4.5007-1.2232-1.9224 0-2.9715.9178-2.9715 2.2278 0 1.3556 1.005 2.0106 3.7143 2.972 3.8452 1.3983 5.6362 3.3648 5.6808 6.5104 0 3.8453-3.0152 6.6863-8.6528 6.6863-2.5779 0-4.894-0.6559-6.4663-1.5296l1.0482-3.8889c1.2237.7432 3.5398 1.5288 5.4626 1.5288 2.3597 0 3.4075-.961 3.4075-2.3588 0-1.4424-.8734-2.1856-3.4948-3.1034-4.1516-1.4415-5.8994-3.7143-5.8562-6.2044z"/>
</svg>
