<svg xmlns="http://www.w3.org/2000/svg" viewBox="0 0 76 76" fill="currentColor">
  <path d="M21.8543 22.9925c1.9647-.3578 4.6883-.6249 8.3937-.6249 4.0171 0 6.9639.8485 8.8831 2.4555 1.7856 1.473 2.9468 3.8394 2.9468 6.6517 0 2.8568-.893 5.2233-2.5896 6.8307-2.1869 2.1879-5.6245 3.2141-9.508 3.2141-.0272 0-.0545 0-.0817 0-.9276 0-1.8651-.0441-2.5796-.1786v11.3391h-5.4464V22.9925zm5.4464 14.0178c.6704.1791 1.5629.2232 2.6796.2232 4.1071 0 6.6066-2.0088 6.6066-5.5356 0-3.348-2.3218-5.1337-6.1158-5.1337-1.5184 0-2.5896.1336-3.1704.2677v10.1784zm23.7067-1.9193c1.0716-3.0804 3.6162-4.6433 5.9372-4.6433l1.2953.1341v5.1791c-.4468-.0899-.9381-.1785-1.6079-.1785-2.6337 0-4.4189 1.6956-4.9102 4.1516l-.1786 1.697v11.2491h-5.4914V37.9479c0-2.9464-.0445-5.0442-.1781-7.0084h4.7765l.1777 4.1515h.1796z"/>
</svg>
